<svg width="48" height="48" viewBox="0 0 48 48" fill="none" xmlns="http://www.w3.org/2000/svg">
  <rect width="48" height="48" rx="12" fill="#0A66C2"/>
  <path d="M24 12C17.373 12 12 17.373 12 24C12 30.627 17.373 36 24 36C30.627 36 36 30.627 36 24C36 17.373 30.627 12 24 12ZM24 33.6C18.696 33.6 14.4 29.304 14.4 24C14.4 18.696 18.696 14.4 24 14.4C29.304 14.4 33.6 18.696 33.6 24C33.6 29.304 29.304 33.6 24 33.6Z" fill="white"/>
  <path d="M24 18C20.686 18 18 20.686 18 24C18 27.314 20.686 30 24 30C27.314 30 30 27.314 30 24C30 20.686 27.314 18 24 18ZM24 27.6C21.996 27.6 20.4 26.004 20.4 24C20.4 21.996 21.996 20.4 24 20.4C26.004 20.4 27.6 21.996 27.6 24C27.6 26.004 26.004 27.6 24 27.6Z" fill="white"/>
  <circle cx="28.8" cy="19.2" r="1.2" fill="white"/>
</svg>
