<svg width="48" height="48" viewBox="0 0 48 48" fill="none" xmlns="http://www.w3.org/2000/svg">
  <!-- Gradient definitions for cute colorful links -->
  <defs>
    <linearGradient id="linkGradient" x1="0%" y1="0%" x2="100%" y2="100%">
      <stop offset="0%" style="stop-color:#0A66C2;stop-opacity:1" />
      <stop offset="100%" style="stop-color:#7C3AED;stop-opacity:1" />
    </linearGradient>
    <linearGradient id="sparkleGradient" x1="0%" y1="0%" x2="100%" y2="100%">
      <stop offset="0%" style="stop-color:#FFD700;stop-opacity:1" />
      <stop offset="100%" style="stop-color:#FFA500;stop-opacity:1" />
    </linearGradient>
  </defs>
  
  <!-- Rounded background with soft gradient -->
  <rect width="48" height="48" rx="12" fill="url(#linkGradient)"/>
  
  <!-- Left chain link (cute rounded style) -->
  <g opacity="0.95">
    <rect x="10" y="16" width="10" height="16" rx="5" fill="white" opacity="0.3"/>
    <circle cx="15" cy="18" r="4" fill="none" stroke="white" stroke-width="2.5" stroke-linecap="round"/>
    <circle cx="15" cy="30" r="4" fill="none" stroke="white" stroke-width="2.5" stroke-linecap="round"/>
  </g>
  
  <!-- Right chain link (cute rounded style) -->
  <g opacity="0.95">
    <rect x="28" y="16" width="10" height="16" rx="5" fill="white" opacity="0.3"/>
    <circle cx="33" cy="18" r="4" fill="none" stroke="white" stroke-width="2.5" stroke-linecap="round"/>
    <circle cx="33" cy="30" r="4" fill="none" stroke="white" stroke-width="2.5" stroke-linecap="round"/>
  </g>
  
  <!-- Connecting link in middle (the "linko" connection) -->
  <rect x="18" y="22" width="12" height="4" rx="2" fill="white"/>
  
  <!-- Cute sparkles for Web3 magic -->
  <circle cx="13" cy="12" r="1.5" fill="url(#sparkleGradient)">
    <animate attributeName="opacity" values="1;0.4;1" dur="2s" repeatCount="indefinite"/>
  </circle>
  <circle cx="35" cy="12" r="1.5" fill="url(#sparkleGradient)">
    <animate attributeName="opacity" values="0.4;1;0.4" dur="2s" repeatCount="indefinite"/>
  </circle>
  <circle cx="24" cy="36" r="1.5" fill="url(#sparkleGradient)">
    <animate attributeName="opacity" values="1;0.4;1" dur="1.8s" repeatCount="indefinite"/>
  </circle>
  
  <!-- Small Web3 hexagon accent -->
  <polygon points="24,8 27,10 27,14 24,16 21,14 21,10" fill="white" opacity="0.5"/>
</svg>
